Chivo-Bold Italic.ufo
<glyph name="ampersand" format="1">
  <advance width="670"/>
  <unicode hex="0026"/>
  <outline>
    <contour>
      <point x="394" y="691" type="line"/>
      <point x="377" y="694"/>
      <point x="358" y="696"/>
      <point x="338" y="696" type="curve" smooth="yes"/>
      <point x="192" y="696"/>
      <point x="75" y="624"/>
      <point x="75" y="486" type="curve" smooth="yes"/>
      <point x="75" y="423"/>
      <point x="109" y="379"/>
      <point x="163" y="357" type="curve"/>
      <point x="77" y="331"/>
      <point x="12" y="271"/>
      <point x="12" y="164" type="curve" smooth="yes"/>
      <point x="12" y="44"/>
      <point x="120" y="0"/>
      <point x="244" y="0" type="curve" smooth="yes"/>
      <point x="516" y="0" type="line"/>
      <point x="530" y="97"/>
      <point x="544" y="195"/>
      <point x="557" y="292" type="curve"/>
      <point x="651" y="292" type="line"/>
      <point x="657" y="331"/>
      <point x="662" y="369"/>
      <point x="667" y="408" type="curve"/>
      <point x="573" y="408" type="line"/>
      <point x="591" y="539" type="line"/>
      <point x="489" y="539" type="line"/>
      <point x="469" y="495"/>
      <point x="449" y="452"/>
      <point x="430" y="408" type="curve"/>
      <point x="308" y="408" type="line" smooth="yes"/>
      <point x="248" y="408"/>
      <point x="219" y="451"/>
      <point x="219" y="487" type="curve" smooth="yes"/>
      <point x="219" y="547"/>
      <point x="265" y="577"/>
      <point x="336" y="577" type="curve" smooth="yes"/>
      <point x="346" y="577"/>
      <point x="370" y="573"/>
      <point x="377" y="570" type="curve"/>
    </contour>
    <contour>
      <point x="409" y="292" type="line"/>
      <point x="401" y="233"/>
      <point x="392" y="173"/>
      <point x="384" y="113" type="curve"/>
      <point x="273" y="113" type="line" smooth="yes"/>
      <point x="212" y="113"/>
      <point x="163" y="136"/>
      <point x="163" y="190" type="curve" smooth="yes"/>
      <point x="163" y="249"/>
      <point x="200" y="292"/>
      <point x="314" y="292" type="curve" smooth="yes"/>
    </contour>
  </outline>
</glyph>
<glyph name="plus" format="1">
  <advance width="600"/>
  <unicode hex="002B"/>
  <outline>
    <contour>
      <point x="387" y="511" type="line"/>
      <point x="282" y="511" type="line"/>
      <point x="254" y="308" type="line"/>
      <point x="51" y="308" type="line"/>
      <point x="36" y="202" type="line"/>
      <point x="239" y="202" type="line"/>
      <point x="211" y="0" type="line"/>
      <point x="316" y="0" type="line"/>
      <point x="344" y="202" type="line"/>
      <point x="548" y="202" type="line"/>
      <point x="563" y="308" type="line"/>
      <point x="359" y="308" type="line"/>
    </contour>
  </outline>
</glyph>
<glyph name="period" format="1">
  <advance width="277"/>
  <unicode hex="002E"/>
  <outline>
    <contour>
      <point x="54" y="0" type="line"/>
      <point x="200" y="0" type="line"/>
      <point x="221" y="147" type="line"/>
      <point x="75" y="147" type="line"/>
    </contour>
  </outline>
</glyph>
<glyph name="three" format="1">
  <advance width="612"/>
  <unicode hex="0033"/>
  <outline>
    <contour>
      <point x="18" y="205" type="line"/>
      <point x="16" y="195"/>
      <point x="13" y="176"/>
      <point x="13" y="160" type="curve" smooth="yes"/>
      <point x="13" y="61"/>
      <point x="89" y="-10"/>
      <point x="236" y="-10" type="curve" smooth="yes"/>
      <point x="263" y="-10" type="line" smooth="yes"/>
      <point x="416" y="-10"/>
      <point x="542" y="76"/>
      <point x="542" y="218" type="curve" smooth="yes"/>
      <point x="542" y="288"/>
      <point x="505" y="333"/>
      <point x="444" y="354" type="curve"/>
      <point x="445" y="359" type="line"/>
      <point x="513" y="388"/>
      <point x="569" y="446"/>
      <point x="569" y="534" type="curve" smooth="yes"/>
      <point x="569" y="628"/>
      <point x="486" y="696"/>
      <point x="362" y="696" type="curve" smooth="yes"/>
      <point x="342" y="696" type="line" smooth="yes"/>
      <point x="201" y="696"/>
      <point x="83" y="616"/>
      <point x="75" y="488" type="curve"/>
      <point x="208" y="488" type="line"/>
      <point x="217" y="546"/>
      <point x="267" y="577"/>
      <point x="324" y="577" type="curve" smooth="yes"/>
      <point x="379" y="577"/>
      <point x="418" y="554"/>
      <point x="418" y="505" type="curve" smooth="yes"/>
      <point x="418" y="437"/>
      <point x="362" y="403"/>
      <point x="303" y="403" type="curve" smooth="yes"/>
      <point x="220" y="403" type="line"/>
      <point x="205" y="296" type="line"/>
      <point x="277" y="296" type="line" smooth="yes"/>
      <point x="335" y="296"/>
      <point x="395" y="288"/>
      <point x="395" y="221" type="curve" smooth="yes"/>
      <point x="395" y="144"/>
      <point x="338" y="109"/>
      <point x="258" y="109" type="curve" smooth="yes"/>
      <point x="188" y="109"/>
      <point x="152" y="135"/>
      <point x="152" y="184" type="curve" smooth="yes"/>
      <point x="152" y="189"/>
      <point x="152" y="194"/>
      <point x="154" y="205" type="curve"/>
    </contour>
  </outline>
</glyph>
<glyph name="four" format="1">
  <advance width="612"/>
  <unicode hex="0034"/>
  <outline>
    <contour>
      <point x="325" y="278" type="line"/>
      <point x="135" y="278" type="line"/>
      <point x="203" y="347"/>
      <point x="354" y="551"/>
      <point x="407" y="696" type="curve"/>
      <point x="266" y="696" type="line"/>
      <point x="213" y="570"/>
      <point x="107" y="388"/>
      <point x="23" y="279" type="curve"/>
      <point x="6" y="160" type="line"/>
      <point x="308" y="160" type="line"/>
      <point x="286" y="0" type="line"/>
      <point x="429" y="0" type="line"/>
      <point x="451" y="160" type="line"/>
      <point x="543" y="160" type="line"/>
      <point x="560" y="278" type="line"/>
      <point x="468" y="278" type="line"/>
      <point x="515" y="612" type="line"/>
      <point x="451" y="612" type="line"/>
      <point x="429" y="559"/>
      <point x="388" y="480"/>
      <point x="346" y="428" type="curve"/>
    </contour>
  </outline>
</glyph>
<glyph name="six" format="1">
  <advance width="612"/>
  <unicode hex="0036"/>
  <outline>
    <contour>
      <point x="395" y="576"/>
      <point x="427" y="535"/>
      <point x="427" y="486" type="curve" smooth="yes"/>
      <point x="427" y="480"/>
      <point x="427" y="475"/>
      <point x="426" y="469" type="curve"/>
      <point x="564" y="469" type="line"/>
      <point x="566" y="483"/>
      <point x="567" y="496"/>
      <point x="567" y="508" type="curve" smooth="yes"/>
      <point x="567" y="629"/>
      <point x="479" y="696"/>
      <point x="360" y="696" type="curve" smooth="yes"/>
      <point x="346" y="696" type="line" smooth="yes"/>
      <point x="210" y="696"/>
      <point x="86" y="591"/>
      <point x="67" y="455" type="curve" smooth="yes"/>
      <point x="34" y="218"/>
      <point x="33" y="210"/>
      <point x="33" y="194" type="curve" smooth="yes"/>
      <point x="33" y="70"/>
      <point x="125" y="-10"/>
      <point x="250" y="-10" type="curve" smooth="yes"/>
      <point x="264" y="-10" type="line" smooth="yes"/>
      <point x="421" y="-10"/>
      <point x="546" y="94"/>
      <point x="546" y="258" type="curve" smooth="yes"/>
      <point x="546" y="368"/>
      <point x="463" y="434"/>
      <point x="351" y="434" type="curve" smooth="yes"/>
      <point x="301" y="434"/>
      <point x="245" y="414"/>
      <point x="203" y="375" type="curve"/>
      <point x="217" y="472" type="line" smooth="yes"/>
      <point x="225" y="531"/>
      <point x="280" y="576"/>
      <point x="339" y="576" type="curve" smooth="yes"/>
    </contour>
    <contour>
      <point x="391" y="147"/>
      <point x="332" y="104"/>
      <point x="275" y="104" type="curve" smooth="yes"/>
      <point x="219" y="104"/>
      <point x="179" y="139"/>
      <point x="179" y="192" type="curve" smooth="yes"/>
      <point x="179" y="197"/>
      <point x="179" y="202"/>
      <point x="182" y="228" type="curve" smooth="yes"/>
      <point x="188" y="289"/>
      <point x="247" y="332"/>
      <point x="304" y="332" type="curve" smooth="yes"/>
      <point x="360" y="332"/>
      <point x="400" y="296"/>
      <point x="400" y="244" type="curve" smooth="yes"/>
      <point x="400" y="239"/>
      <point x="400" y="233"/>
      <point x="397" y="208" type="curve" smooth="yes"/>
    </contour>
  </outline>
</glyph>
<glyph name="F" format="1">
  <advance width="563"/>
  <unicode hex="0046"/>
  <outline>
    <contour>
      <point x="584" y="686" type="line"/>
      <point x="120" y="686" type="line"/>
      <point x="23" y="0" type="line"/>
      <point x="175" y="0" type="line"/>
      <point x="214" y="276" type="line"/>
      <point x="480" y="276" type="line"/>
      <point x="497" y="399" type="line"/>
      <point x="231" y="399" type="line"/>
      <point x="254" y="563" type="line"/>
      <point x="550" y="563" type="line"/>
    </contour>
  </outline>
</glyph>
<glyph name="K" format="1">
  <advance width="660"/>
  <unicode hex="004B"/>
  <outline>
    <contour>
      <point x="23" y="0" type="line"/>
      <point x="174" y="0" type="line"/>
      <point x="199" y="179" type="line"/>
      <point x="302" y="278" type="line"/>
      <point x="426" y="0" type="line"/>
      <point x="601" y="0" type="line"/>
      <point x="540" y="132"/>
      <point x="480" y="264"/>
      <point x="419" y="397" type="curve"/>
      <point x="505" y="487"/>
      <point x="589" y="578"/>
      <point x="691" y="686" type="curve"/>
      <point x="518" y="686" type="line"/>
      <point x="227" y="372" type="line"/>
      <point x="271" y="686" type="line"/>
      <point x="120" y="686" type="line"/>
    </contour>
    <contour>
      <point x="391" y="686" type="move" name="top"/>
    </contour>
    <contour>
      <point x="294" y="0" type="move" name="bottom"/>
    </contour>
  </outline>
</glyph>
<glyph name="N" format="1">
  <advance width="691"/>
  <unicode hex="004E"/>
  <outline>
    <contour>
      <point x="569" y="0" type="line"/>
      <point x="666" y="686" type="line"/>
      <point x="525" y="686" type="line"/>
      <point x="468" y="283" type="line"/>
      <point x="465" y="280" type="line"/>
      <point x="450" y="309"/>
      <point x="437" y="340"/>
      <point x="422" y="368" type="curve" smooth="yes"/>
      <point x="251" y="686" type="line"/>
      <point x="120" y="686" type="line"/>
      <point x="23" y="0" type="line"/>
      <point x="164" y="0" type="line"/>
      <point x="221" y="402" type="line"/>
      <point x="225" y="405" type="line"/>
      <point x="225" y="405"/>
      <point x="254" y="342"/>
      <point x="268" y="316" type="curve" smooth="yes"/>
      <point x="438" y="0" type="line"/>
    </contour>
    <contour>
      <point x="407" y="686" type="move" name="top"/>
    </contour>
    <contour>
      <point x="310" y="0" type="move" name="bottom"/>
    </contour>
  </outline>
</glyph>
<glyph name="T" format="1">
  <advance width="557"/>
  <unicode hex="0054"/>
  <outline>
    <contour>
      <point x="579" y="562" type="line"/>
      <point x="597" y="686" type="line"/>
      <point x="55" y="686" type="line"/>
      <point x="37" y="562" type="line"/>
      <point x="232" y="562" type="line"/>
      <point x="153" y="0" type="line"/>
      <point x="306" y="0" type="line"/>
      <point x="385" y="562" type="line"/>
    </contour>
    <contour>
      <point x="283" y="343" type="move" name="center"/>
    </contour>
    <contour>
      <point x="230" y="0" type="move" name="bottom"/>
    </contour>
    <contour>
      <point x="340" y="686" type="move" name="top"/>
    </contour>
  </outline>
</glyph>
<glyph name="W" format="1">
  <advance width="972"/>
  <unicode hex="0057"/>
  <outline>
    <contour>
      <point x="499" y="412" type="line"/>
      <point x="553" y="0" type="line"/>
      <point x="722" y="0" type="line"/>
      <point x="1012" y="686" type="line"/>
      <point x="866" y="686" type="line"/>
      <point x="805" y="536"/>
      <point x="743" y="386"/>
      <point x="682" y="237" type="curve"/>
      <point x="677" y="237" type="line"/>
      <point x="658" y="386"/>
      <point x="638" y="536"/>
      <point x="619" y="686" type="curve"/>
      <point x="464" y="686" type="line"/>
      <point x="402" y="536"/>
      <point x="341" y="386"/>
      <point x="279" y="237" type="curve"/>
      <point x="274" y="237" type="line"/>
      <point x="255" y="386"/>
      <point x="235" y="536"/>
      <point x="216" y="686" type="curve"/>
      <point x="55" y="686" type="line"/>
      <point x="150" y="0" type="line"/>
      <point x="321" y="0" type="line"/>
      <point x="493" y="412" type="line"/>
    </contour>
    <contour>
      <point x="547" y="686" type="move" name="top"/>
    </contour>
  </outline>
</glyph>
<glyph name="X" format="1">
  <advance width="658"/>
  <unicode hex="0058"/>
  <outline>
    <contour>
      <point x="118" y="0" type="line"/>
      <point x="142" y="35"/>
      <point x="222" y="137"/>
      <point x="307" y="245" type="curve"/>
      <point x="311" y="245" type="line"/>
      <point x="428" y="0" type="line"/>
      <point x="609" y="0" type="line"/>
      <point x="609" y="0"/>
      <point x="489" y="242"/>
      <point x="428" y="362" type="curve"/>
      <point x="538" y="499"/>
      <point x="685" y="686"/>
      <point x="685" y="686" type="curve" smooth="yes"/>
      <point x="518" y="686" type="line"/>
      <point x="498" y="657"/>
      <point x="432" y="571"/>
      <point x="355" y="476" type="curve"/>
      <point x="351" y="476" type="line"/>
      <point x="251" y="686" type="line"/>
      <point x="70" y="686" type="line"/>
      <point x="234" y="360" type="line"/>
      <point x="-48" y="0" type="line"/>
    </contour>
  </outline>
</glyph>
<glyph name="Y" format="1">
  <advance width="637"/>
  <unicode hex="0059"/>
  <outline>
    <contour>
      <point x="678" y="686" type="line"/>
      <point x="520" y="686" type="line"/>
      <point x="338" y="414" type="line"/>
      <point x="333" y="414" type="line"/>
      <point x="229" y="686" type="line"/>
      <point x="55" y="686" type="line"/>
      <point x="230" y="263" type="line"/>
      <point x="193" y="0" type="line"/>
      <point x="347" y="0" type="line"/>
      <point x="384" y="263" type="line"/>
    </contour>
    <contour>
      <point x="380" y="686" type="move" name="top"/>
    </contour>
  </outline>
</glyph>
<glyph name="backslash" format="1">
  <advance width="560"/>
  <unicode hex="005C"/>
  <outline>
    <contour>
      <point x="417" y="-171" type="line"/>
      <point x="524" y="-171" type="line"/>
      <point x="155" y="686" type="line"/>
      <point x="49" y="686" type="line"/>
    </contour>
  </outline>
</glyph>
<glyph name="grave" format="1">
  <advance width="333"/>
  <unicode hex="0060"/>
  <outline>
    <contour>
      <point x="262" y="575" type="line"/>
      <point x="190" y="720" type="line"/>
      <point x="62" y="720" type="line"/>
      <point x="60" y="717" type="line"/>
      <point x="160" y="575" type="line"/>
    </contour>
    <contour>
      <point x="162" y="511" type="move" name="_top"/>
    </contour>
  </outline>
</glyph>
<glyph name="a" format="1">
  <advance width="598"/>
  <unicode hex="0061"/>
  <outline>
    <contour>
      <point x="450" y="511" type="line"/>
      <point x="417" y="448" type="line"/>
      <point x="411" y="448" type="line"/>
      <point x="385" y="493"/>
      <point x="333" y="521"/>
      <point x="272" y="521" type="curve" smooth="yes"/>
      <point x="122" y="521"/>
      <point x="31" y="371"/>
      <point x="31" y="191" type="curve" smooth="yes"/>
      <point x="31" y="66"/>
      <point x="91" y="-10"/>
      <point x="203" y="-10" type="curve" smooth="yes"/>
      <point x="266" y="-10"/>
      <point x="321" y="21"/>
      <point x="360" y="66" type="curve"/>
      <point x="365" y="17"/>
      <point x="398" y="-10"/>
      <point x="466" y="-10" type="curve" smooth="yes"/>
      <point x="500" y="-10"/>
      <point x="535" y="0"/>
      <point x="556" y="11" type="curve"/>
      <point x="570" y="104" type="line"/>
      <point x="560" y="97"/>
      <point x="542" y="90"/>
      <point x="528" y="90" type="curve" smooth="yes"/>
      <point x="512" y="90"/>
      <point x="503" y="100"/>
      <point x="503" y="117" type="curve" smooth="yes"/>
      <point x="503" y="132"/>
      <point x="544" y="421"/>
      <point x="557" y="511" type="curve"/>
    </contour>
    <contour>
      <point x="357" y="130"/>
      <point x="310" y="90"/>
      <point x="256" y="90" type="curve" smooth="yes"/>
      <point x="208" y="90"/>
      <point x="175" y="121"/>
      <point x="175" y="183" type="curve" smooth="yes"/>
      <point x="175" y="192"/>
      <point x="176" y="201"/>
      <point x="189" y="294" type="curve" smooth="yes"/>
      <point x="201" y="375"/>
      <point x="247" y="415"/>
      <point x="302" y="415" type="curve" smooth="yes"/>
      <point x="349" y="415"/>
      <point x="383" y="384"/>
      <point x="383" y="322" type="curve" smooth="yes"/>
      <point x="383" y="313"/>
      <point x="382" y="304"/>
      <point x="369" y="211" type="curve" smooth="yes"/>
    </contour>
    <contour>
      <point x="502" y="10" type="move" name="ogonek"/>
    </contour>
    <contour>
      <point x="335" y="511" type="move" name="top"/>
    </contour>
  </outline>
</glyph>
<glyph name="d" format="1">
  <advance width="595"/>
  <unicode hex="0064"/>
  <outline>
    <contour>
      <point x="434" y="720" type="line"/>
      <point x="396" y="452" type="line"/>
      <point x="376" y="485"/>
      <point x="333" y="521"/>
      <point x="263" y="521" type="curve" smooth="yes"/>
      <point x="86" y="521"/>
      <point x="23" y="326"/>
      <point x="23" y="192" type="curve" smooth="yes"/>
      <point x="23" y="54"/>
      <point x="100" y="-10"/>
      <point x="203" y="-10" type="curve" smooth="yes"/>
      <point x="267" y="-10"/>
      <point x="315" y="19"/>
      <point x="353" y="59" type="curve"/>
      <point x="360" y="14"/>
      <point x="393" y="-10"/>
      <point x="458" y="-10" type="curve" smooth="yes"/>
      <point x="492" y="-10"/>
      <point x="527" y="0"/>
      <point x="548" y="11" type="curve"/>
      <point x="562" y="104" type="line"/>
      <point x="552" y="97"/>
      <point x="534" y="90"/>
      <point x="520" y="90" type="curve" smooth="yes"/>
      <point x="504" y="90"/>
      <point x="495" y="100"/>
      <point x="495" y="117" type="curve" smooth="yes"/>
      <point x="495" y="127"/>
      <point x="580" y="720"/>
      <point x="580" y="720" type="curve" smooth="yes"/>
    </contour>
    <contour>
      <point x="350" y="130"/>
      <point x="303" y="90"/>
      <point x="249" y="90" type="curve" smooth="yes"/>
      <point x="201" y="90"/>
      <point x="168" y="121"/>
      <point x="168" y="183" type="curve" smooth="yes"/>
      <point x="168" y="192"/>
      <point x="169" y="201"/>
      <point x="182" y="294" type="curve" smooth="yes"/>
      <point x="194" y="375"/>
      <point x="240" y="415"/>
      <point x="295" y="415" type="curve" smooth="yes"/>
      <point x="342" y="415"/>
      <point x="376" y="384"/>
      <point x="376" y="322" type="curve" smooth="yes"/>
      <point x="376" y="313"/>
      <point x="375" y="304"/>
      <point x="362" y="211" type="curve" smooth="yes"/>
    </contour>
    <contour>
      <point x="334" y="256" type="move" name="center"/>
    </contour>
    <contour>
      <point x="714" y="686" type="move" name="topright"/>
    </contour>
  </outline>
</glyph>
<glyph name="n" format="1">
  <advance width="597"/>
  <unicode hex="006E"/>
  <outline>
    <contour>
      <point x="101" y="511" type="line"/>
      <point x="29" y="0" type="line"/>
      <point x="175" y="0" type="line"/>
      <point x="219" y="314" type="line" smooth="yes"/>
      <point x="227" y="371"/>
      <point x="277" y="415"/>
      <point x="328" y="415" type="curve" smooth="yes"/>
      <point x="370" y="415"/>
      <point x="397" y="384"/>
      <point x="397" y="340" type="curve" smooth="yes"/>
      <point x="397" y="331"/>
      <point x="397" y="330"/>
      <point x="350" y="0" type="curve"/>
      <point x="496" y="0" type="line"/>
      <point x="547" y="367"/>
      <point x="548" y="362"/>
      <point x="548" y="386" type="curve" smooth="yes"/>
      <point x="548" y="477"/>
      <point x="479" y="521"/>
      <point x="390" y="521" type="curve" smooth="yes"/>
      <point x="311" y="521"/>
      <point x="253" y="479"/>
      <point x="215" y="436" type="curve"/>
      <point x="210" y="511" type="line"/>
    </contour>
    <contour>
      <point x="335" y="511" type="move" name="top"/>
    </contour>
    <contour>
      <point x="263" y="0" type="move" name="bottom"/>
    </contour>
  </outline>
</glyph>
<glyph name="q" format="1">
  <advance width="595"/>
  <unicode hex="0071"/>
  <outline>
    <contour>
      <point x="332" y="-180" type="line"/>
      <point x="478" y="-180" type="line"/>
      <point x="575" y="511" type="line"/>
      <point x="522" y="511" type="line"/>
      <point x="502" y="486"/>
      <point x="481" y="459"/>
      <point x="460" y="433" type="curve"/>
      <point x="430" y="490"/>
      <point x="377" y="521"/>
      <point x="303" y="521" type="curve" smooth="yes"/>
      <point x="123" y="521"/>
      <point x="48" y="344"/>
      <point x="48" y="187" type="curve" smooth="yes"/>
      <point x="48" y="56"/>
      <point x="118" y="-10"/>
      <point x="213" y="-10" type="curve" smooth="yes"/>
      <point x="283" y="-10"/>
      <point x="336" y="26"/>
      <point x="366" y="59" type="curve"/>
    </contour>
    <contour>
      <point x="220" y="381"/>
      <point x="267" y="421"/>
      <point x="321" y="421" type="curve" smooth="yes"/>
      <point x="369" y="421"/>
      <point x="402" y="390"/>
      <point x="402" y="328" type="curve" smooth="yes"/>
      <point x="402" y="319"/>
      <point x="401" y="310"/>
      <point x="388" y="217" type="curve" smooth="yes"/>
      <point x="376" y="136"/>
      <point x="330" y="96"/>
      <point x="275" y="96" type="curve" smooth="yes"/>
      <point x="228" y="96"/>
      <point x="194" y="127"/>
      <point x="194" y="189" type="curve" smooth="yes"/>
      <point x="194" y="198"/>
      <point x="195" y="207"/>
      <point x="208" y="300" type="curve" smooth="yes"/>
    </contour>
  </outline>
</glyph>
<glyph name="r" format="1">
  <advance width="489"/>
  <unicode hex="0072"/>
  <outline>
    <contour>
      <point x="482" y="313" type="line"/>
      <point x="486" y="323"/>
      <point x="495" y="376"/>
      <point x="495" y="396" type="curve" smooth="yes"/>
      <point x="495" y="470"/>
      <point x="454" y="521"/>
      <point x="371" y="521" type="curve" smooth="yes"/>
      <point x="275" y="521"/>
      <point x="222" y="447"/>
      <point x="216" y="436" type="curve"/>
      <point x="209" y="511" type="line"/>
      <point x="101" y="511" type="line"/>
      <point x="29" y="0" type="line"/>
      <point x="173" y="0" type="line"/>
      <point x="217" y="316" type="line" smooth="yes"/>
      <point x="224" y="367"/>
      <point x="253" y="412"/>
      <point x="303" y="412" type="curve" smooth="yes"/>
      <point x="349" y="412"/>
      <point x="364" y="382"/>
      <point x="364" y="351" type="curve" smooth="yes"/>
      <point x="364" y="346"/>
      <point x="364" y="341"/>
      <point x="360" y="313" type="curve"/>
    </contour>
    <contour>
      <point x="281" y="511" type="move" name="top"/>
    </contour>
    <contour>
      <point x="101" y="0" type="move" name="bottom"/>
    </contour>
  </outline>
</glyph>
<glyph name="v" format="1">
  <advance width="536"/>
  <unicode hex="0076"/>
  <outline>
    <contour>
      <point x="565" y="511" type="line"/>
      <point x="423" y="511" type="line"/>
      <point x="264" y="169" type="line"/>
      <point x="259" y="169" type="line"/>
      <point x="196" y="511" type="line"/>
      <point x="41" y="511" type="line"/>
      <point x="149" y="0" type="line"/>
      <point x="314" y="0" type="line"/>
    </contour>
  </outline>
</glyph>
<glyph name="x" format="1">
  <advance width="553"/>
  <unicode hex="0078"/>
  <outline>
    <contour>
      <point x="128" y="0" type="line"/>
      <point x="256" y="165" type="line"/>
      <point x="260" y="165" type="line"/>
      <point x="341" y="0" type="line"/>
      <point x="510" y="0" type="line"/>
      <point x="370" y="265" type="line"/>
      <point x="571" y="511" type="line"/>
      <point x="413" y="511" type="line"/>
      <point x="376" y="462"/>
      <point x="339" y="413"/>
      <point x="300" y="365" type="curve"/>
      <point x="296" y="365" type="line"/>
      <point x="272" y="413"/>
      <point x="250" y="462"/>
      <point x="225" y="511" type="curve"/>
      <point x="55" y="511" type="line"/>
      <point x="186" y="264" type="line"/>
      <point x="-29" y="0" type="line"/>
    </contour>
  </outline>
</glyph>
<glyph name="y" format="1">
  <advance width="536"/>
  <unicode hex="0079"/>
  <outline>
    <contour>
      <point x="579" y="511" type="line"/>
      <point x="435" y="511" type="line"/>
      <point x="283" y="190" type="line"/>
      <point x="277" y="190" type="line"/>
      <point x="210" y="511" type="line"/>
      <point x="55" y="511" type="line"/>
      <point x="177" y="10" type="line"/>
      <point x="150" y="-53"/>
      <point x="116" y="-83"/>
      <point x="73" y="-83" type="curve" smooth="yes"/>
      <point x="49" y="-83"/>
      <point x="21" y="-75"/>
      <point x="8" y="-69" type="curve"/>
      <point x="-5" y="-172" type="line"/>
      <point x="14" y="-182"/>
      <point x="42" y="-187"/>
      <point x="77" y="-187" type="curve" smooth="yes"/>
      <point x="186" y="-187"/>
      <point x="267" y="-92"/>
      <point x="329" y="28" type="curve" smooth="yes"/>
    </contour>
    <contour>
      <point x="304" y="511" type="move" name="top"/>
    </contour>
  </outline>
</glyph>
<glyph name="z" format="1">
  <advance width="486"/>
  <unicode hex="007A"/>
  <outline>
    <contour>
      <point x="419" y="0" type="line"/>
      <point x="433" y="100" type="line"/>
      <point x="206" y="100" type="line"/>
      <point x="476" y="462" type="line"/>
      <point x="482" y="511" type="line"/>
      <point x="84" y="511" type="line"/>
      <point x="70" y="411" type="line"/>
      <point x="275" y="411" type="line"/>
      <point x="7" y="50" type="line"/>
      <point x="0" y="0" type="line"/>
    </contour>
    <contour>
      <point x="279" y="511" type="move" name="top"/>
    </contour>
  </outline>
</glyph>
<glyph name="cent" format="1">
  <advance width="571"/>
  <unicode hex="00A2"/>
  <outline>
    <contour>
      <point x="207" y="451"/>
      <point x="251" y="507"/>
      <point x="313" y="507" type="curve" smooth="yes"/>
      <point x="366" y="507"/>
      <point x="390" y="472"/>
      <point x="390" y="420" type="curve" smooth="yes"/>
      <point x="390" y="411"/>
      <point x="389" y="402"/>
      <point x="388" y="393" type="curve"/>
      <point x="533" y="393" type="line"/>
      <point x="535" y="405"/>
      <point x="535" y="416"/>
      <point x="535" y="427" type="curve" smooth="yes"/>
      <point x="535" y="534"/>
      <point x="461" y="597"/>
      <point x="366" y="606" type="curve"/>
      <point x="392" y="693" type="line"/>
      <point x="291" y="693" type="line"/>
      <point x="291" y="605" type="line"/>
      <point x="114" y="587"/>
      <point x="38" y="431"/>
      <point x="38" y="278" type="curve" smooth="yes"/>
      <point x="38" y="160"/>
      <point x="105" y="89"/>
      <point x="216" y="77" type="curve"/>
      <point x="192" y="-8" type="line"/>
      <point x="293" y="-8" type="line"/>
      <point x="293" y="77" type="line"/>
      <point x="399" y="86"/>
      <point x="498" y="152"/>
      <point x="518" y="289" type="curve"/>
      <point x="380" y="289" type="line"/>
      <point x="369" y="213"/>
      <point x="325" y="176"/>
      <point x="265" y="176" type="curve" smooth="yes"/>
      <point x="212" y="176"/>
      <point x="184" y="216"/>
      <point x="184" y="269" type="curve" smooth="yes"/>
      <point x="184" y="277"/>
      <point x="185" y="285"/>
      <point x="198" y="382" type="curve" smooth="yes"/>
    </contour>
  </outline>
</glyph>
<glyph name="yen" format="1">
  <advance width="642"/>
  <unicode hex="00A5"/>
  <outline>
    <contour>
      <point x="52" y="370" type="line"/>
      <point x="188" y="370" type="line"/>
      <point x="197" y="350"/>
      <point x="206" y="330"/>
      <point x="214" y="310" type="curve"/>
      <point x="44" y="310" type="line"/>
      <point x="33" y="231" type="line"/>
      <point x="229" y="231" type="line"/>
      <point x="196" y="0" type="line"/>
      <point x="349" y="0" type="line"/>
      <point x="382" y="231" type="line"/>
      <point x="582" y="231" type="line"/>
      <point x="593" y="310" type="line"/>
      <point x="419" y="310" type="line"/>
      <point x="460" y="370" type="line"/>
      <point x="601" y="370" type="line"/>
      <point x="612" y="448" type="line"/>
      <point x="514" y="448" type="line"/>
      <point x="680" y="686" type="line"/>
      <point x="522" y="686" type="line"/>
      <point x="462" y="595"/>
      <point x="401" y="504"/>
      <point x="340" y="414" type="curve"/>
      <point x="336" y="414" type="line"/>
      <point x="301" y="504"/>
      <point x="266" y="595"/>
      <point x="232" y="686" type="curve"/>
      <point x="58" y="686" type="line"/>
      <point x="156" y="448" type="line"/>
      <point x="63" y="448" type="line"/>
    </contour>
  </outline>
</glyph>
<glyph name="guillemotleft" format="1">
  <advance width="459"/>
  <unicode hex="00AB"/>
  <outline>
    <contour>
      <point x="387" y="163" type="line"/>
      <point x="323" y="337" type="line"/>
      <point x="436" y="511" type="line"/>
      <point x="374" y="511" type="line"/>
      <point x="228" y="337" type="line"/>
      <point x="325" y="163" type="line"/>
    </contour>
    <contour>
      <point x="205" y="163" type="line"/>
      <point x="141" y="337" type="line"/>
      <point x="254" y="511" type="line"/>
      <point x="192" y="511" type="line"/>
      <point x="47" y="337" type="line"/>
      <point x="143" y="163" type="line"/>
    </contour>
  </outline>
</glyph>
<glyph name="plusminus" format="1">
  <advance width="600"/>
  <unicode hex="00B1"/>
  <outline>
    <contour>
      <point x="517" y="0" type="line"/>
      <point x="531" y="105" type="line"/>
      <point x="24" y="105" type="line"/>
      <point x="10" y="0" type="line"/>
    </contour>
    <contour>
      <point x="387" y="511" type="line"/>
      <point x="282" y="511" type="line"/>
      <point x="264" y="382" type="line"/>
      <point x="61" y="382" type="line"/>
      <point x="46" y="276" type="line"/>
      <point x="249" y="276" type="line"/>
      <point x="231" y="147" type="line"/>
      <point x="336" y="147" type="line"/>
      <point x="354" y="276" type="line"/>
      <point x="558" y="276" type="line"/>
      <point x="573" y="382" type="line"/>
      <point x="369" y="382" type="line"/>
    </contour>
  </outline>
</glyph>
<glyph name="acute" format="1">
  <advance width="333"/>
  <unicode hex="00B4"/>
  <outline>
    <contour>
      <point x="141" y="575" type="line"/>
      <point x="282" y="716" type="line"/>
      <point x="282" y="720" type="line"/>
      <point x="153" y="720" type="line"/>
      <point x="40" y="575" type="line"/>
    </contour>
    <contour>
      <point x="122" y="511" type="move" name="_top"/>
    </contour>
  </outline>
</glyph>
<glyph name="guillemotright" format="1">
  <advance width="459"/>
  <unicode hex="00BB"/>
  <outline>
    <contour>
      <point x="84" y="163" type="line"/>
      <point x="231" y="337" type="line"/>
      <point x="133" y="511" type="line"/>
      <point x="71" y="511" type="line"/>
      <point x="136" y="337" type="line"/>
      <point x="22" y="163" type="line"/>
    </contour>
    <contour>
      <point x="266" y="163" type="line"/>
      <point x="412" y="337" type="line"/>
      <point x="315" y="511" type="line"/>
      <point x="253" y="511" type="line"/>
      <point x="318" y="337" type="line"/>
      <point x="204" y="163" type="line"/>
    </contour>
  </outline>
</glyph>
<glyph name="questiondown" format="1">
  <advance width="572"/>
  <unicode hex="00BF"/>
  <outline>
    <contour>
      <point x="255" y="511" type="line"/>
      <point x="249" y="462"/>
      <point x="242" y="413"/>
      <point x="235" y="364" type="curve"/>
      <point x="383" y="364" type="line"/>
      <point x="389" y="413"/>
      <point x="396" y="462"/>
      <point x="403" y="511" type="curve"/>
    </contour>
    <contour>
      <point x="231" y="274" type="line" smooth="yes"/>
      <point x="221" y="201"/>
      <point x="31" y="174"/>
      <point x="31" y="-5" type="curve" smooth="yes"/>
      <point x="31" y="-94"/>
      <point x="106" y="-185"/>
      <point x="239" y="-185" type="curve" smooth="yes"/>
      <point x="251" y="-185" type="line" smooth="yes"/>
      <point x="404" y="-185"/>
      <point x="517" y="-88"/>
      <point x="517" y="59" type="curve"/>
      <point x="376" y="59" type="line"/>
      <point x="374" y="-4"/>
      <point x="352" y="-71"/>
      <point x="267" y="-71" type="curve" smooth="yes"/>
      <point x="213" y="-71"/>
      <point x="186" y="-31"/>
      <point x="186" y="7" type="curve" smooth="yes"/>
      <point x="187" y="118"/>
      <point x="348" y="149"/>
      <point x="362" y="248" type="curve" smooth="yes"/>
      <point x="371" y="310" type="line"/>
      <point x="236" y="310" type="line"/>
    </contour>
  </outline>
</glyph>
<glyph name="Acircumflex" format="1">
  <advance width="686"/>
  <unicode hex="00C2"/>
  <outline>
    <contour>
      <point x="473" y="0" type="line"/>
      <point x="635" y="0" type="line"/>
      <point x="483" y="686" type="line"/>
      <point x="299" y="686" type="line"/>
      <point x="-46" y="0" type="line"/>
      <point x="102" y="0" type="line"/>
      <point x="169" y="135" type="line"/>
      <point x="442" y="135" type="line"/>
    </contour>
    <contour>
      <point x="364" y="521" type="line"/>
      <point x="382" y="432"/>
      <point x="400" y="342"/>
      <point x="418" y="252" type="curve"/>
      <point x="228" y="252" type="line"/>
      <point x="271" y="342"/>
      <point x="315" y="432"/>
      <point x="359" y="521" type="curve"/>
    </contour>
    <contour>
      <point x="206" y="750" type="line"/>
      <point x="310" y="750" type="line"/>
      <point x="407" y="833" type="line"/>
      <point x="479" y="750" type="line"/>
      <point x="584" y="750" type="line"/>
      <point x="545" y="798"/>
      <point x="506" y="847"/>
      <point x="468" y="895" type="curve"/>
      <point x="365" y="895" type="line"/>
    </contour>
  </outline>
</glyph>
<glyph name="Atilde" format="1">
  <advance width="686"/>
  <unicode hex="00C3"/>
  <outline>
    <contour>
      <point x="473" y="0" type="line"/>
      <point x="635" y="0" type="line"/>
      <point x="483" y="686" type="line"/>
      <point x="299" y="686" type="line"/>
      <point x="-46" y="0" type="line"/>
      <point x="102" y="0" type="line"/>
      <point x="169" y="135" type="line"/>
      <point x="442" y="135" type="line"/>
    </contour>
    <contour>
      <point x="364" y="521" type="line"/>
      <point x="382" y="432"/>
      <point x="400" y="342"/>
      <point x="418" y="252" type="curve"/>
      <point x="228" y="252" type="line"/>
      <point x="271" y="342"/>
      <point x="315" y="432"/>
      <point x="359" y="521" type="curve"/>
    </contour>
    <contour>
      <point x="540" y="873" type="line"/>
      <point x="530" y="850"/>
      <point x="510" y="835"/>
      <point x="482" y="835" type="curve" smooth="yes"/>
      <point x="428" y="835"/>
      <point x="381" y="873"/>
      <point x="317" y="873" type="curve" smooth="yes"/>
      <point x="239" y="873"/>
      <point x="182" y="808"/>
      <point x="174" y="749" type="curve"/>
      <point x="239" y="749" type="line"/>
      <point x="249" y="772"/>
      <point x="268" y="786"/>
      <point x="296" y="786" type="curve" smooth="yes"/>
      <point x="350" y="786"/>
      <point x="398" y="749"/>
      <point x="462" y="749" type="curve" smooth="yes"/>
      <point x="540" y="749"/>
      <point x="597" y="813"/>
      <point x="605" y="873" type="curve"/>
    </contour>
  </outline>
</glyph>
<glyph name="Aring" format="1">
  <advance width="686"/>
  <unicode hex="00C5"/>
  <outline>
    <contour>
      <point x="473" y="0" type="line"/>
      <point x="635" y="0" type="line"/>
      <point x="483" y="686" type="line"/>
      <point x="299" y="686" type="line"/>
      <point x="-46" y="0" type="line"/>
      <point x="102" y="0" type="line"/>
      <point x="169" y="135" type="line"/>
      <point x="442" y="135" type="line"/>
    </contour>
    <contour>
      <point x="364" y="521" type="line"/>
      <point x="382" y="432"/>
      <point x="400" y="342"/>
      <point x="418" y="252" type="curve"/>
      <point x="228" y="252" type="line"/>
      <point x="271" y="342"/>
      <point x="315" y="432"/>
      <point x="359" y="521" type="curve"/>
    </contour>
    <contour>
      <point x="512" y="893"/>
      <point x="473" y="931"/>
      <point x="421" y="931" type="curve" smooth="yes"/>
      <point x="362" y="931"/>
      <point x="308" y="883"/>
      <point x="308" y="820" type="curve" smooth="yes"/>
      <point x="308" y="768"/>
      <point x="347" y="730"/>
      <point x="400" y="730" type="curve" smooth="yes"/>
      <point x="460" y="730"/>
      <point x="512" y="779"/>
      <point x="512" y="841" type="curve" smooth="yes"/>
    </contour>
    <contour>
      <point x="381" y="783"/>
      <point x="364" y="802"/>
      <point x="364" y="826" type="curve" smooth="yes"/>
      <point x="364" y="856"/>
      <point x="387" y="878"/>
      <point x="414" y="878" type="curve" smooth="yes"/>
      <point x="439" y="878"/>
      <point x="457" y="859"/>
      <point x="457" y="834" type="curve" smooth="yes"/>
      <point x="457" y="803"/>
      <point x="431" y="783"/>
      <point x="406" y="783" type="curve" smooth="yes"/>
    </contour>
  </outline>
</glyph>
<glyph name="AE" format="1">
  <advance width="1004"/>
  <unicode hex="00C6"/>
  <outline>
    <contour>
      <point x="469" y="0" type="line"/>
      <point x="915" y="0" type="line"/>
      <point x="915" y="123" type="line"/>
      <point x="622" y="123" type="line"/>
      <point x="618" y="178"/>
      <point x="612" y="236"/>
      <point x="607" y="290" type="curve"/>
      <point x="914" y="290" type="line"/>
      <point x="931" y="411" type="line"/>
      <point x="598" y="411" type="line"/>
      <point x="585" y="563" type="line"/>
      <point x="974" y="563" type="line"/>
      <point x="1008" y="686" type="line"/>
      <point x="392" y="686" type="line"/>
      <point x="-48" y="0" type="line"/>
      <point x="98" y="0" type="line"/>
      <point x="185" y="135" type="line"/>
      <point x="458" y="135" type="line"/>
    </contour>
    <contour>
      <point x="434" y="521" type="line"/>
      <point x="440" y="432"/>
      <point x="444" y="342"/>
      <point x="451" y="252" type="curve"/>
      <point x="260" y="252" type="line"/>
      <point x="316" y="342"/>
      <point x="372" y="432"/>
      <point x="429" y="521" type="curve"/>
    </contour>
    <contour>
      <point x="563" y="686" type="move" name="top"/>
    </contour>
  </outline>
</glyph>
<glyph name="Ccedilla" format="1">
  <advance width="683"/>
  <unicode hex="00C7"/>
  <outline>
    <contour>
      <point x="483" y="270" type="line"/>
      <point x="468" y="165"/>
      <point x="416" y="113"/>
      <point x="325" y="113" type="curve" smooth="yes"/>
      <point x="247" y="113"/>
      <point x="196" y="151"/>
      <point x="196" y="240" type="curve" smooth="yes"/>
      <point x="196" y="270"/>
      <point x="202" y="303"/>
      <point x="214" y="382" type="curve" smooth="yes"/>
      <point x="231" y="498"/>
      <point x="269" y="573"/>
      <point x="384" y="573" type="curve" smooth="yes"/>
      <point x="454" y="573"/>
      <point x="501" y="531"/>
      <point x="501" y="457" type="curve" smooth="yes"/>
      <point x="501" y="453" type="line"/>
      <point x="500" y="440"/>
      <point x="499" y="427"/>
      <point x="497" y="414" type="curve"/>
      <point x="644" y="414" type="line"/>
      <point x="647" y="433"/>
      <point x="648" y="451"/>
      <point x="648" y="468" type="curve" smooth="yes"/>
      <point x="648" y="620"/>
      <point x="546" y="696"/>
      <point x="406" y="696" type="curve" smooth="yes"/>
      <point x="392" y="696" type="line" smooth="yes"/>
      <point x="214" y="696"/>
      <point x="81" y="586"/>
      <point x="54" y="392" type="curve" smooth="yes"/>
      <point x="38" y="277"/>
      <point x="35" y="255"/>
      <point x="35" y="237" type="curve" smooth="yes"/>
      <point x="35" y="75"/>
      <point x="144" y="-10"/>
      <point x="297" y="-10" type="curve" smooth="yes"/>
      <point x="311" y="-10" type="line" smooth="yes"/>
      <point x="480" y="-10"/>
      <point x="598" y="88"/>
      <point x="624" y="270" type="curve"/>
    </contour>
    <contour>
      <point x="153" y="-168" type="line"/>
      <point x="177" y="-187"/>
      <point x="220" y="-197"/>
      <point x="257" y="-197" type="curve" smooth="yes"/>
      <point x="303" y="-197"/>
      <point x="390" y="-180"/>
      <point x="390" y="-91" type="curve" smooth="yes"/>
      <point x="390" y="-32"/>
      <point x="337" y="-17"/>
      <point x="285" y="-17" type="curve" smooth="yes"/>
      <point x="262" y="-17" type="line"/>
      <point x="255" y="-68" type="line"/>
      <point x="275" y="-68" type="line" smooth="yes"/>
      <point x="301" y="-68"/>
      <point x="315" y="-79"/>
      <point x="315" y="-99" type="curve" smooth="yes"/>
      <point x="315" y="-130"/>
      <point x="288" y="-142"/>
      <point x="261" y="-142" type="curve" smooth="yes"/>
      <point x="214" y="-142"/>
      <point x="187" y="-119"/>
      <point x="181" y="-116" type="curve"/>
    </contour>
  </outline>
</glyph>
<glyph name="Egrave" format="1">
  <advance width="598"/>
  <unicode hex="00C8"/>
  <outline>
    <contour>
      <point x="509" y="0" type="line"/>
      <point x="509" y="123" type="line"/>
      <point x="193" y="123" type="line"/>
      <point x="216" y="290" type="line"/>
      <point x="509" y="290" type="line"/>
      <point x="526" y="413" type="line"/>
      <point x="233" y="413" type="line"/>
      <point x="254" y="563" type="line"/>
      <point x="568" y="563" type="line"/>
      <point x="603" y="686" type="line"/>
      <point x="120" y="686" type="line"/>
      <point x="23" y="0" type="line"/>
    </contour>
    <contour>
      <point x="428" y="750" type="line"/>
      <point x="356" y="895" type="line"/>
      <point x="228" y="895" type="line"/>
      <point x="226" y="892" type="line"/>
      <point x="326" y="750" type="line"/>
    </contour>
  </outline>
</glyph>
<glyph name="Iacute" format="1">
  <advance width="461"/>
  <unicode hex="00CD"/>
  <outline>
    <contour>
      <point x="102" y="563" type="line"/>
      <point x="183" y="563" type="line"/>
      <point x="122" y="123" type="line"/>
      <point x="41" y="123" type="line"/>
      <point x="23" y="0" type="line"/>
      <point x="339" y="0" type="line"/>
      <point x="357" y="123" type="line"/>
      <point x="277" y="123" type="line"/>
      <point x="338" y="563" type="line"/>
      <point x="418" y="563" type="line"/>
      <point x="436" y="686" type="line"/>
      <point x="120" y="686" type="line"/>
    </contour>
    <contour>
      <point x="325" y="750" type="line"/>
      <point x="466" y="891" type="line"/>
      <point x="466" y="895" type="line"/>
      <point x="337" y="895" type="line"/>
      <point x="224" y="750" type="line"/>
    </contour>
  </outline>
</glyph>
<glyph name="Icircumflex" format="1">
  <advance width="461"/>
  <unicode hex="00CE"/>
  <outline>
    <contour>
      <point x="102" y="563" type="line"/>
      <point x="183" y="563" type="line"/>
      <point x="122" y="123" type="line"/>
      <point x="41" y="123" type="line"/>
      <point x="23" y="0" type="line"/>
      <point x="339" y="0" type="line"/>
      <point x="357" y="123" type="line"/>
      <point x="277" y="123" type="line"/>
      <point x="338" y="563" type="line"/>
      <point x="418" y="563" type="line"/>
      <point x="436" y="686" type="line"/>
      <point x="120" y="686" type="line"/>
    </contour>
    <contour>
      <point x="97" y="750" type="line"/>
      <point x="201" y="750" type="line"/>
      <point x="298" y="833" type="line"/>
      <point x="370" y="750" type="line"/>
      <point x="475" y="750" type="line"/>
      <point x="436" y="798"/>
      <point x="397" y="847"/>
      <point x="359" y="895" type="curve"/>
      <point x="256" y="895" type="line"/>
    </contour>
  </outline>
</glyph>
<glyph name="Uacute" format="1">
  <advance width="673"/>
  <unicode hex="00DA"/>
  <outline>
    <contour>
      <point x="657" y="686" type="line"/>
      <point x="503" y="686" type="line"/>
      <point x="438" y="221" type="line" smooth="yes"/>
      <point x="429" y="157"/>
      <point x="376" y="112"/>
      <point x="305" y="112" type="curve" smooth="yes"/>
      <point x="241" y="112"/>
      <point x="200" y="150"/>
      <point x="200" y="205" type="curve" smooth="yes"/>
      <point x="200" y="213"/>
      <point x="200" y="215"/>
      <point x="266" y="686" type="curve"/>
      <point x="112" y="686" type="line"/>
      <point x="45" y="205"/>
      <point x="44" y="198"/>
      <point x="44" y="181" type="curve" smooth="yes"/>
      <point x="44" y="64"/>
      <point x="131" y="-10"/>
      <point x="273" y="-10" type="curve" smooth="yes"/>
      <point x="301" y="-10" type="line" smooth="yes"/>
      <point x="457" y="-10"/>
      <point x="572" y="75"/>
      <point x="592" y="218" type="curve" smooth="yes"/>
    </contour>
    <contour>
      <point x="443" y="750" type="line"/>
      <point x="584" y="891" type="line"/>
      <point x="584" y="895" type="line"/>
      <point x="455" y="895" type="line"/>
      <point x="342" y="750" type="line"/>
    </contour>
  </outline>
</glyph>
<glyph name="germandbls" format="1">
  <advance width="622"/>
  <unicode hex="00DF"/>
  <outline>
    <contour>
      <point x="570" y="306"/>
      <point x="532" y="366"/>
      <point x="473" y="388" type="curve"/>
      <point x="472" y="393" type="line"/>
      <point x="541" y="420"/>
      <point x="593" y="497"/>
      <point x="593" y="574" type="curve" smooth="yes"/>
      <point x="593" y="679"/>
      <point x="492" y="728"/>
      <point x="384" y="728" type="curve" smooth="yes"/>
      <point x="258" y="728"/>
      <point x="133" y="648"/>
      <point x="110" y="511" type="curve"/>
      <point x="50" y="511" type="line"/>
      <point x="36" y="411" type="line"/>
      <point x="96" y="411" type="line"/>
      <point x="29" y="-66" type="line"/>
      <point x="175" y="-66" type="line"/>
      <point x="258" y="526" type="line" smooth="yes"/>
      <point x="266" y="584"/>
      <point x="308" y="628"/>
      <point x="366" y="628" type="curve" smooth="yes"/>
      <point x="414" y="628"/>
      <point x="448" y="598"/>
      <point x="448" y="549" type="curve" smooth="yes"/>
      <point x="448" y="480"/>
      <point x="394" y="431"/>
      <point x="339" y="431" type="curve" smooth="yes"/>
      <point x="293" y="431" type="line"/>
      <point x="279" y="331" type="line"/>
      <point x="330" y="331" type="line" smooth="yes"/>
      <point x="385" y="331"/>
      <point x="425" y="297"/>
      <point x="425" y="242" type="curve" smooth="yes"/>
      <point x="425" y="152"/>
      <point x="359" y="100"/>
      <point x="297" y="100" type="curve" smooth="yes"/>
      <point x="246" y="100" type="line"/>
      <point x="232" y="0" type="line"/>
      <point x="305" y="0" type="line" smooth="yes"/>
      <point x="456" y="0"/>
      <point x="570" y="102"/>
      <point x="570" y="239" type="curve" smooth="yes"/>
    </contour>
  </outline>
</glyph>
<glyph name="eacute" format="1">
  <advance width="588"/>
  <unicode hex="00E9"/>
  <outline>
    <contour>
      <point x="392" y="191" type="line"/>
      <point x="383" y="123"/>
      <point x="339" y="90"/>
      <point x="279" y="90" type="curve" smooth="yes"/>
      <point x="217" y="90"/>
      <point x="184" y="131"/>
      <point x="184" y="186" type="curve" smooth="yes"/>
      <point x="184" y="193"/>
      <point x="186" y="219"/>
      <point x="189" y="231" type="curve"/>
      <point x="539" y="231" type="line"/>
      <point x="550" y="307" type="line"/>
      <point x="551" y="318"/>
      <point x="552" y="329"/>
      <point x="552" y="340" type="curve" smooth="yes"/>
      <point x="552" y="456"/>
      <point x="460" y="521"/>
      <point x="348" y="521" type="curve" smooth="yes"/>
      <point x="332" y="521" type="line" smooth="yes"/>
      <point x="150" y="521"/>
      <point x="39" y="385"/>
      <point x="39" y="197" type="curve" smooth="yes"/>
      <point x="39" y="65"/>
      <point x="129" y="-10"/>
      <point x="257" y="-10" type="curve" smooth="yes"/>
      <point x="273" y="-10" type="line" smooth="yes"/>
      <point x="391" y="-10"/>
      <point x="513" y="50"/>
      <point x="532" y="191" type="curve"/>
    </contour>
    <contour>
      <point x="381" y="421"/>
      <point x="404" y="387"/>
      <point x="404" y="338" type="curve" smooth="yes"/>
      <point x="404" y="329"/>
      <point x="403" y="320"/>
      <point x="402" y="311" type="curve"/>
      <point x="200" y="311" type="line"/>
      <point x="214" y="373"/>
      <point x="259" y="421"/>
      <point x="319" y="421" type="curve" smooth="yes"/>
    </contour>
    <contour>
      <point x="383" y="575" type="line"/>
      <point x="524" y="716" type="line"/>
      <point x="524" y="720" type="line"/>
      <point x="395" y="720" type="line"/>
      <point x="282" y="575" type="line"/>
    </contour>
  </outline>
</glyph>
<glyph name="igrave" format="1">
  <advance width="278"/>
  <unicode hex="00EC"/>
  <outline>
    <contour>
      <point x="176" y="0" type="line"/>
      <point x="247" y="511" type="line"/>
      <point x="101" y="511" type="line"/>
      <point x="30" y="0" type="line"/>
    </contour>
    <contour>
      <point x="244" y="575" type="line"/>
      <point x="172" y="720" type="line"/>
      <point x="44" y="720" type="line"/>
      <point x="42" y="717" type="line"/>
      <point x="142" y="575" type="line"/>
    </contour>
  </outline>
</glyph>
<glyph name="icircumflex" format="1">
  <advance width="278"/>
  <unicode hex="00EE"/>
  <outline>
    <contour>
      <point x="176" y="0" type="line"/>
      <point x="247" y="511" type="line"/>
      <point x="101" y="511" type="line"/>
      <point x="30" y="0" type="line"/>
    </contour>
    <contour>
      <point x="-13" y="575" type="line"/>
      <point x="91" y="575" type="line"/>
      <point x="188" y="658" type="line"/>
      <point x="260" y="575" type="line"/>
      <point x="365" y="575" type="line"/>
      <point x="326" y="623"/>
      <point x="287" y="672"/>
      <point x="249" y="720" type="curve"/>
      <point x="146" y="720" type="line"/>
    </contour>
  </outline>
</glyph>
<glyph name="idieresis" format="1">
  <advance width="278"/>
  <unicode hex="00EF"/>
  <outline>
    <contour>
      <point x="176" y="0" type="line"/>
      <point x="247" y="511" type="line"/>
      <point x="101" y="511" type="line"/>
      <point x="30" y="0" type="line"/>
    </contour>
    <contour>
      <point x="24" y="598" type="line"/>
      <point x="145" y="598" type="line"/>
      <point x="162" y="720" type="line"/>
      <point x="41" y="720" type="line"/>
    </contour>
    <contour>
      <point x="228" y="598" type="line"/>
      <point x="349" y="598" type="line"/>
      <point x="366" y="720" type="line"/>
      <point x="245" y="720" type="line"/>
    </contour>
  </outline>
</glyph>
<glyph name="eth" format="1">
  <advance width="614"/>
  <unicode hex="00F0"/>
  <outline>
    <contour>
      <point x="185" y="555" type="line"/>
      <point x="280" y="596" type="line"/>
      <point x="302" y="573"/>
      <point x="324" y="546"/>
      <point x="343" y="514" type="curve"/>
      <point x="336" y="514" type="line" smooth="yes"/>
      <point x="124" y="514"/>
      <point x="24" y="381"/>
      <point x="24" y="197" type="curve" smooth="yes"/>
      <point x="24" y="65"/>
      <point x="114" y="-10"/>
      <point x="242" y="-10" type="curve" smooth="yes"/>
      <point x="258" y="-10" type="line" smooth="yes"/>
      <point x="449" y="-10"/>
      <point x="551" y="139"/>
      <point x="551" y="315" type="curve" smooth="yes"/>
      <point x="551" y="444"/>
      <point x="477" y="562"/>
      <point x="383" y="646" type="curve"/>
      <point x="410" y="657"/>
      <point x="436" y="669"/>
      <point x="461" y="680" type="curve"/>
      <point x="424" y="722" type="line"/>
      <point x="336" y="684" type="line"/>
      <point x="307" y="703"/>
      <point x="278" y="720"/>
      <point x="249" y="734" type="curve"/>
      <point x="156" y="692" type="line"/>
      <point x="191" y="671"/>
      <point x="210" y="657"/>
      <point x="235" y="637" type="curve"/>
      <point x="144" y="597" type="line"/>
    </contour>
    <contour>
      <point x="380" y="131"/>
      <point x="325" y="90"/>
      <point x="264" y="90" type="curve" smooth="yes"/>
      <point x="209" y="90"/>
      <point x="170" y="122"/>
      <point x="170" y="188" type="curve" smooth="yes"/>
      <point x="170" y="196"/>
      <point x="170" y="205"/>
      <point x="183" y="296" type="curve" smooth="yes"/>
      <point x="194" y="380"/>
      <point x="248" y="421"/>
      <point x="311" y="421" type="curve" smooth="yes"/>
      <point x="366" y="421"/>
      <point x="405" y="389"/>
      <point x="405" y="323" type="curve" smooth="yes"/>
      <point x="405" y="315"/>
      <point x="404" y="306"/>
      <point x="392" y="215" type="curve" smooth="yes"/>
    </contour>
  </outline>
</glyph>
<glyph name="oslash" format="1">
  <advance width="606"/>
  <unicode hex="00F8"/>
  <outline>
    <contour>
      <point x="564" y="380"/>
      <point x="541" y="431"/>
      <point x="502" y="467" type="curve"/>
      <point x="580" y="568" type="line"/>
      <point x="505" y="568" type="line"/>
      <point x="496" y="557"/>
      <point x="478" y="532"/>
      <point x="453" y="499" type="curve"/>
      <point x="422" y="513"/>
      <point x="386" y="521"/>
      <point x="346" y="521" type="curve" smooth="yes"/>
      <point x="330" y="521" type="line" smooth="yes"/>
      <point x="148" y="521"/>
      <point x="37" y="391"/>
      <point x="37" y="197" type="curve" smooth="yes"/>
      <point x="37" y="130"/>
      <point x="60" y="78"/>
      <point x="100" y="42" type="curve"/>
      <point x="62" y="-6"/>
      <point x="35" y="-42"/>
      <point x="25" y="-55" type="curve"/>
      <point x="100" y="-55" type="line"/>
      <point x="150" y="10" type="line"/>
      <point x="181" y="-3"/>
      <point x="216" y="-10"/>
      <point x="255" y="-10" type="curve" smooth="yes"/>
      <point x="271" y="-10" type="line" smooth="yes"/>
      <point x="461" y="-10"/>
      <point x="564" y="129"/>
      <point x="564" y="314" type="curve" smooth="yes"/>
    </contour>
    <contour>
      <point x="184" y="164"/>
      <point x="183" y="175"/>
      <point x="183" y="188" type="curve" smooth="yes"/>
      <point x="183" y="196"/>
      <point x="184" y="205"/>
      <point x="196" y="296" type="curve" smooth="yes"/>
      <point x="207" y="380"/>
      <point x="262" y="421"/>
      <point x="324" y="421" type="curve" smooth="yes"/>
      <point x="346" y="421"/>
      <point x="365" y="415"/>
      <point x="380" y="405" type="curve"/>
      <point x="321" y="328"/>
      <point x="250" y="236"/>
      <point x="187" y="154" type="curve"/>
    </contour>
    <contour>
      <point x="393" y="131"/>
      <point x="337" y="90"/>
      <point x="277" y="90" type="curve" smooth="yes"/>
      <point x="256" y="90"/>
      <point x="237" y="94"/>
      <point x="222" y="104" type="curve"/>
      <point x="414" y="353" type="line"/>
      <point x="416" y="344"/>
      <point x="418" y="334"/>
      <point x="418" y="323" type="curve" smooth="yes"/>
      <point x="418" y="315"/>
      <point x="417" y="306"/>
      <point x="405" y="215" type="curve" smooth="yes"/>
    </contour>
    <contour>
      <point x="339" y="511" type="move" name="top"/>
    </contour>
  </outline>
</glyph>
<glyph name="yacute" format="1">
  <advance width="545"/>
  <unicode hex="00FD"/>
  <outline>
    <contour>
      <point x="583" y="511" type="line"/>
      <point x="439" y="511" type="line"/>
      <point x="287" y="190" type="line"/>
      <point x="281" y="190" type="line"/>
      <point x="214" y="511" type="line"/>
      <point x="59" y="511" type="line"/>
      <point x="181" y="10" type="line"/>
      <point x="154" y="-53"/>
      <point x="120" y="-83"/>
      <point x="77" y="-83" type="curve" smooth="yes"/>
      <point x="53" y="-83"/>
      <point x="25" y="-75"/>
      <point x="12" y="-69" type="curve"/>
      <point x="-1" y="-172" type="line"/>
      <point x="18" y="-182"/>
      <point x="46" y="-187"/>
      <point x="81" y="-187" type="curve" smooth="yes"/>
      <point x="190" y="-187"/>
      <point x="271" y="-92"/>
      <point x="333" y="28" type="curve" smooth="yes"/>
    </contour>
    <contour>
      <point x="381" y="575" type="line"/>
      <point x="522" y="716" type="line"/>
      <point x="522" y="720" type="line"/>
      <point x="393" y="720" type="line"/>
      <point x="280" y="575" type="line"/>
    </contour>
  </outline>
</glyph>
<glyph name="lslash" format="1">
  <advance width="279"/>
  <unicode hex="0142"/>
  <outline>
    <contour>
      <point x="-16" y="268" type="line"/>
      <point x="7" y="280"/>
      <point x="32" y="291"/>
      <point x="57" y="303" type="curve"/>
      <point x="15" y="0" type="line"/>
      <point x="161" y="0" type="line"/>
      <point x="214" y="377" type="line"/>
      <point x="290" y="412" type="line"/>
      <point x="302" y="500" type="line"/>
      <point x="226" y="464" type="line"/>
      <point x="262" y="720" type="line"/>
      <point x="116" y="720" type="line"/>
      <point x="70" y="390" type="line"/>
      <point x="44" y="378"/>
      <point x="19" y="367"/>
      <point x="-4" y="355" type="curve"/>
    </contour>
  </outline>
</glyph>
<glyph name="oe" format="1">
  <advance width="946"/>
  <unicode hex="0153"/>
  <outline>
    <contour>
      <point x="330" y="521" type="line" smooth="yes"/>
      <point x="148" y="521"/>
      <point x="37" y="391"/>
      <point x="37" y="197" type="curve" smooth="yes"/>
      <point x="37" y="65"/>
      <point x="127" y="-10"/>
      <point x="255" y="-10" type="curve" smooth="yes"/>
      <point x="271" y="-10" type="line" smooth="yes"/>
      <point x="346" y="-10"/>
      <point x="407" y="11"/>
      <point x="454" y="49" type="curve"/>
      <point x="493" y="10"/>
      <point x="550" y="-10"/>
      <point x="617" y="-10" type="curve" smooth="yes"/>
      <point x="633" y="-10" type="line" smooth="yes"/>
      <point x="751" y="-10"/>
      <point x="873" y="50"/>
      <point x="892" y="191" type="curve"/>
      <point x="752" y="191" type="line"/>
      <point x="743" y="123"/>
      <point x="699" y="90"/>
      <point x="639" y="90" type="curve" smooth="yes"/>
      <point x="577" y="90"/>
      <point x="544" y="131"/>
      <point x="544" y="186" type="curve" smooth="yes"/>
      <point x="544" y="193"/>
      <point x="546" y="219"/>
      <point x="549" y="231" type="curve"/>
      <point x="899" y="231" type="line"/>
      <point x="910" y="307" type="line"/>
      <point x="911" y="318"/>
      <point x="912" y="329"/>
      <point x="912" y="340" type="curve" smooth="yes"/>
      <point x="912" y="456"/>
      <point x="820" y="521"/>
      <point x="708" y="521" type="curve" smooth="yes"/>
      <point x="692" y="521" type="line" smooth="yes"/>
      <point x="619" y="521"/>
      <point x="557" y="498"/>
      <point x="510" y="460" type="curve"/>
      <point x="471" y="499"/>
      <point x="413" y="521"/>
      <point x="346" y="521" type="curve" smooth="yes"/>
    </contour>
    <contour>
      <point x="393" y="131"/>
      <point x="337" y="90"/>
      <point x="277" y="90" type="curve" smooth="yes"/>
      <point x="222" y="90"/>
      <point x="183" y="122"/>
      <point x="183" y="188" type="curve" smooth="yes"/>
      <point x="183" y="196"/>
      <point x="184" y="205"/>
      <point x="196" y="296" type="curve" smooth="yes"/>
      <point x="207" y="380"/>
      <point x="262" y="421"/>
      <point x="324" y="421" type="curve" smooth="yes"/>
      <point x="379" y="421"/>
      <point x="418" y="389"/>
      <point x="418" y="323" type="curve" smooth="yes"/>
      <point x="418" y="315"/>
      <point x="417" y="306"/>
      <point x="405" y="215" type="curve" smooth="yes"/>
    </contour>
    <contour>
      <point x="741" y="421"/>
      <point x="764" y="387"/>
      <point x="764" y="338" type="curve" smooth="yes"/>
      <point x="764" y="329"/>
      <point x="763" y="320"/>
      <point x="762" y="311" type="curve"/>
      <point x="560" y="311" type="line"/>
      <point x="574" y="373"/>
      <point x="619" y="421"/>
      <point x="679" y="421" type="curve" smooth="yes"/>
    </contour>
    <contour>
      <point x="509" y="511" type="move" name="top"/>
    </contour>
  </outline>
</glyph>
<glyph name="Scaron" format="1">
  <advance width="635"/>
  <unicode hex="0160"/>
  <outline>
    <contour>
      <point x="578" y="457"/>
      <point x="227" y="383"/>
      <point x="227" y="500" type="curve" smooth="yes"/>
      <point x="227" y="549"/>
      <point x="279" y="575"/>
      <point x="354" y="575" type="curve" smooth="yes"/>
      <point x="417" y="575"/>
      <point x="456" y="548"/>
      <point x="456" y="506" type="curve" smooth="yes"/>
      <point x="456" y="504"/>
      <point x="455" y="493"/>
      <point x="453" y="483" type="curve"/>
      <point x="598" y="483" type="line"/>
      <point x="602" y="504"/>
      <point x="602" y="516"/>
      <point x="602" y="526" type="curve" smooth="yes"/>
      <point x="602" y="644"/>
      <point x="499" y="696"/>
      <point x="368" y="696" type="curve" smooth="yes"/>
      <point x="197" y="696"/>
      <point x="68" y="622"/>
      <point x="68" y="471" type="curve" smooth="yes"/>
      <point x="68" y="241"/>
      <point x="417" y="318"/>
      <point x="417" y="200" type="curve" smooth="yes"/>
      <point x="417" y="147"/>
      <point x="372" y="115"/>
      <point x="274" y="115" type="curve" smooth="yes"/>
      <point x="199" y="115"/>
      <point x="160" y="144"/>
      <point x="160" y="193" type="curve" smooth="yes"/>
      <point x="160" y="201"/>
      <point x="161" y="218"/>
      <point x="165" y="224" type="curve"/>
      <point x="19" y="224" type="line"/>
      <point x="15" y="209"/>
      <point x="12" y="186"/>
      <point x="12" y="168" type="curve" smooth="yes"/>
      <point x="12" y="41"/>
      <point x="126" y="-10"/>
      <point x="262" y="-10" type="curve" smooth="yes"/>
      <point x="480" y="-10"/>
      <point x="578" y="90"/>
      <point x="578" y="236" type="curve" smooth="yes"/>
    </contour>
    <contour>
      <point x="314" y="750" type="line"/>
      <point x="417" y="750" type="line"/>
      <point x="476" y="805"/>
      <point x="526" y="850"/>
      <point x="575" y="895" type="curve"/>
      <point x="471" y="895" type="line"/>
      <point x="375" y="812" type="line"/>
      <point x="302" y="895" type="line"/>
      <point x="197" y="895" type="line"/>
    </contour>
  </outline>
</glyph>
<glyph name="circumflex" format="1">
  <advance width="538"/>
  <unicode hex="02C6"/>
  <outline>
    <contour>
      <point x="67" y="575" type="line"/>
      <point x="171" y="575" type="line"/>
      <point x="268" y="658" type="line"/>
      <point x="340" y="575" type="line"/>
      <point x="445" y="575" type="line"/>
      <point x="406" y="623"/>
      <point x="367" y="672"/>
      <point x="329" y="720" type="curve"/>
      <point x="226" y="720" type="line"/>
    </contour>
    <contour>
      <point x="237" y="511" type="move" name="_top"/>
    </contour>
  </outline>
</glyph>
<glyph name="caron" format="1">
  <advance width="538"/>
  <unicode hex="02C7"/>
  <outline>
    <contour>
      <point x="205" y="575" type="line"/>
      <point x="308" y="575" type="line"/>
      <point x="367" y="630"/>
      <point x="417" y="675"/>
      <point x="466" y="720" type="curve"/>
      <point x="362" y="720" type="line"/>
      <point x="266" y="637" type="line"/>
      <point x="193" y="720" type="line"/>
      <point x="88" y="720" type="line"/>
    </contour>
    <contour>
      <point x="258" y="511" type="move" name="_top"/>
    </contour>
  </outline>
</glyph>
<glyph name="ogonek" format="1">
  <advance width="340"/>
  <unicode hex="02DB"/>
  <outline>
    <contour>
      <point x="247" y="-79" type="line"/>
      <point x="225" y="-87"/>
      <point x="202" y="-93"/>
      <point x="178" y="-93" type="curve" smooth="yes"/>
      <point x="159" y="-93"/>
      <point x="139" y="-86"/>
      <point x="139" y="-64" type="curve" smooth="yes"/>
      <point x="139" y="-35"/>
      <point x="170" y="-13"/>
      <point x="195" y="0" type="curve"/>
      <point x="133" y="0" type="line"/>
      <point x="101" y="-19"/>
      <point x="68" y="-44"/>
      <point x="68" y="-83" type="curve" smooth="yes"/>
      <point x="68" y="-129"/>
      <point x="112" y="-143"/>
      <point x="155" y="-143" type="curve" smooth="yes"/>
      <point x="188" y="-143"/>
      <point x="224" y="-135"/>
      <point x="255" y="-119" type="curve"/>
    </contour>
    <contour>
      <point x="197" y="10" type="move" name="_ogonek"/>
    </contour>
  </outline>
</glyph>
<glyph name="dagger" format="1">
  <advance width="572"/>
  <unicode hex="2020"/>
  <outline>
    <contour>
      <point x="550" y="392" type="line"/>
      <point x="567" y="510" type="line"/>
      <point x="357" y="491" type="line"/>
      <point x="403" y="686" type="line"/>
      <point x="279" y="686" type="line"/>
      <point x="279" y="491" type="line"/>
      <point x="75" y="510" type="line"/>
      <point x="58" y="392" type="line"/>
      <point x="268" y="411" type="line"/>
      <point x="167" y="-166" type="line"/>
      <point x="285" y="-166" type="line"/>
      <point x="346" y="411" type="line"/>
    </contour>
  </outline>
</glyph>
<glyph name="bullet" format="1">
  <advance width="544"/>
  <unicode hex="2022"/>
  <outline>
    <contour>
      <point x="433" y="444"/>
      <point x="374" y="505"/>
      <point x="293" y="505" type="curve" smooth="yes"/>
      <point x="191" y="505"/>
      <point x="108" y="419"/>
      <point x="108" y="319" type="curve" smooth="yes"/>
      <point x="108" y="241"/>
      <point x="166" y="181"/>
      <point x="247" y="181" type="curve" smooth="yes"/>
      <point x="347" y="181"/>
      <point x="433" y="261"/>
      <point x="433" y="365" type="curve" smooth="yes"/>
    </contour>
  </outline>
</glyph>
<glyph name="fraction" format="1">
  <advance width="194"/>
  <unicode hex="2044"/>
  <outline>
    <contour>
      <point x="388" y="686" type="line"/>
      <point x="317" y="686" type="line"/>
      <point x="-199" y="0" type="line"/>
      <point x="-125" y="0" type="line"/>
    </contour>
  </outline>
</glyph>
<glyph name="product" format="1">
  <advance width="818"/>
  <unicode hex="220F"/>
  <outline>
    <contour>
      <point x="835" y="581" type="line"/>
      <point x="854" y="719" type="line"/>
      <point x="79" y="719" type="line"/>
      <point x="60" y="581" type="line"/>
      <point x="176" y="581" type="line"/>
      <point x="80" y="-100" type="line"/>
      <point x="238" y="-100" type="line"/>
      <point x="334" y="581" type="line"/>
      <point x="559" y="581" type="line"/>
      <point x="463" y="-100" type="line"/>
      <point x="621" y="-100" type="line"/>
      <point x="717" y="581" type="line"/>
    </contour>
  </outline>
</glyph>
<glyph name="minus" format="1">
  <advance width="625"/>
  <unicode hex="2212"/>
  <outline>
    <contour>
      <point x="47" y="217" type="line"/>
      <point x="559" y="217" type="line"/>
      <point x="576" y="337" type="line"/>
      <point x="64" y="337" type="line"/>
    </contour>
  </outline>
</glyph>
<glyph name="approxequal" format="1">
  <advance width="714"/>
  <unicode hex="2248"/>
  <outline>
    <contour>
      <point x="667" y="463" type="line"/>
      <point x="667" y="463"/>
      <point x="588" y="385"/>
      <point x="493" y="385" type="curve" smooth="yes"/>
      <point x="405" y="385"/>
      <point x="350" y="451"/>
      <point x="265" y="451" type="curve" smooth="yes"/>
      <point x="170" y="451"/>
      <point x="91" y="373"/>
      <point x="91" y="373" type="curve"/>
      <point x="76" y="268" type="line"/>
      <point x="76" y="268"/>
      <point x="155" y="346"/>
      <point x="250" y="346" type="curve" smooth="yes"/>
      <point x="338" y="346"/>
      <point x="394" y="280"/>
      <point x="479" y="280" type="curve" smooth="yes"/>
      <point x="574" y="280"/>
      <point x="653" y="358"/>
      <point x="653" y="358" type="curve"/>
    </contour>
    <contour>
      <point x="637" y="248" type="line"/>
      <point x="637" y="248"/>
      <point x="558" y="170"/>
      <point x="463" y="170" type="curve" smooth="yes"/>
      <point x="375" y="170"/>
      <point x="319" y="236"/>
      <point x="234" y="236" type="curve" smooth="yes"/>
      <point x="139" y="236"/>
      <point x="60" y="158"/>
      <point x="60" y="158" type="curve"/>
      <point x="46" y="53" type="line"/>
      <point x="46" y="53"/>
      <point x="125" y="131"/>
      <point x="220" y="131" type="curve" smooth="yes"/>
      <point x="308" y="131"/>
      <point x="363" y="65"/>
      <point x="448" y="65" type="curve" smooth="yes"/>
      <point x="543" y="65"/>
      <point x="622" y="143"/>
      <point x="622" y="143" type="curve"/>
    </contour>
  </outline>
</glyph>
<glyph name="lozenge" format="1">
  <advance width="568"/>
  <unicode hex="25CA"/>
  <outline>
    <contour>
      <point x="295" y="0" type="line"/>
      <point x="512" y="343" type="line"/>
      <point x="392" y="686" type="line"/>
      <point x="271" y="686" type="line"/>
      <point x="55" y="343" type="line"/>
      <point x="174" y="0" type="line"/>
    </contour>
    <contour>
      <point x="346" y="506"/>
      <point x="375" y="424"/>
      <point x="404" y="343" type="curve"/>
      <point x="352" y="261"/>
      <point x="300" y="179"/>
      <point x="250" y="97" type="curve"/>
      <point x="164" y="343" type="line"/>
      <point x="216" y="424"/>
      <point x="266" y="506"/>
      <point x="319" y="588" type="curve"/>
    </contour>
  </outline>
</glyph>
